<svg width="56" height="56" viewBox="0 0 56 56" fill="none" xmlns="http://www.w3.org/2000/svg">
<g filter="url(#filter0_bd_49_1124)">
<rect x="8" y="8" width="40" height="40" rx="20" fill="white" fill-opacity="0.5" shape-rendering="crispEdges"/>
<path d="M33.5345 37H22.4655C20.5546 37 19 35.4454 19 33.5345V22.4655C19 20.5546 20.5546 19 22.4655 19H33.5345C35.4454 19 37 20.5546 37 22.4655V33.5344C37 35.4453 35.4453 37 33.5345 37ZM22.4655 20.5518C21.4102 20.5518 20.5517 21.4103 20.5517 22.4656V33.5345C20.5517 34.5897 21.4102 35.4483 22.4655 35.4483H33.5345C34.5898 35.4483 35.4483 34.5898 35.4483 33.5345V22.4655C35.4483 21.4103 34.5898 20.5517 33.5345 20.5517L22.4655 20.5518ZM28 32.7708C25.3694 32.7708 23.2292 30.6306 23.2292 28C23.2292 25.3694 25.3694 23.2292 28 23.2292C30.6306 23.2292 32.7708 25.3694 32.7708 28C32.7708 30.6306 30.6306 32.7708 28 32.7708ZM28 24.7809C26.225 24.7809 24.781 26.2249 24.781 28C24.781 29.7751 26.225 31.2191 28 31.2191C29.775 31.2191 31.2191 29.7751 31.2191 28C31.2191 26.2249 29.7749 24.7809 28 24.7809Z" fill="#797282"/>
<rect x="8.5" y="8.5" width="39" height="39" rx="19.5" stroke="#D9D9E3" shape-rendering="crispEdges"/>
</g>
<defs>
<filter id="filter0_bd_49_1124" x="-12" y="-12" width="80" height="80" filterUnits="userSpaceOnUse" color-interpolation-filters="sRGB">
<feFlood flood-opacity="0" result="BackgroundImageFix"/>
<feGaussianBlur in="BackgroundImageFix" stdDeviation="10"/>
<feComposite in2="SourceAlpha" operator="in" result="effect1_backgroundBlur_49_1124"/>
<feColorMatrix in="SourceAlpha" type="matrix" values="0 0 0 0 0 0 0 0 0 0 0 0 0 0 0 0 0 0 127 0" result="hardAlpha"/>
<feOffset/>
<feGaussianBlur stdDeviation="4"/>
<feComposite in2="hardAlpha" operator="out"/>
<feColorMatrix type="matrix" values="0 0 0 0 0.843137 0 0 0 0 0.356863 0 0 0 0 0.2 0 0 0 0.1 0"/>
<feBlend mode="normal" in2="effect1_backgroundBlur_49_1124" result="effect2_dropShadow_49_1124"/>
<feBlend mode="normal" in="SourceGraphic" in2="effect2_dropShadow_49_1124" result="shape"/>
</filter>
</defs>
</svg>
