<svg width="231" height="56" viewBox="0 0 231 56" fill="none" xmlns="http://www.w3.org/2000/svg">
<g filter="url(#filter0_bd_19_458)">
<rect x="8" y="8" width="40" height="40" rx="20" fill="white" fill-opacity="0.5" shape-rendering="crispEdges"/>
<mask id="mask0_19_458" style="mask-type:alpha" maskUnits="userSpaceOnUse" x="18" y="18" width="20" height="20">
<rect x="18" y="18" width="20" height="20" fill="#D9D9D9"/>
</mask>
<g mask="url(#mask0_19_458)">
<path d="M34.625 35.5C32.8889 35.5 31.1736 35.1215 29.4792 34.3646C27.7847 33.6076 26.2431 32.5347 24.8542 31.1458C23.4653 29.7569 22.3924 28.2153 21.6354 26.5208C20.8785 24.8264 20.5 23.1111 20.5 21.375C20.5 21.125 20.5833 20.9167 20.75 20.75C20.9167 20.5833 21.125 20.5 21.375 20.5H24.75C24.9444 20.5 25.1181 20.566 25.2708 20.6979C25.4236 20.8299 25.5139 20.9861 25.5417 21.1667L26.0833 24.0833C26.1111 24.3056 26.1042 24.4931 26.0625 24.6458C26.0208 24.7986 25.9444 24.9306 25.8333 25.0417L23.8125 27.0833C24.0903 27.5972 24.4201 28.0938 24.8021 28.5729C25.184 29.0521 25.6042 29.5139 26.0625 29.9583C26.4931 30.3889 26.9444 30.7882 27.4167 31.1562C27.8889 31.5243 28.3889 31.8611 28.9167 32.1667L30.875 30.2083C31 30.0833 31.1632 29.9896 31.3646 29.9271C31.566 29.8646 31.7639 29.8472 31.9583 29.875L34.8333 30.4583C35.0278 30.5139 35.1875 30.6146 35.3125 30.7604C35.4375 30.9062 35.5 31.0694 35.5 31.25V34.625C35.5 34.875 35.4167 35.0833 35.25 35.25C35.0833 35.4167 34.875 35.5 34.625 35.5ZM23.0208 25.5L24.3958 24.125L24.0417 22.1667H22.1875C22.2569 22.7361 22.3542 23.2986 22.4792 23.8542C22.6042 24.4097 22.7847 24.9583 23.0208 25.5ZM30.4792 32.9583C31.0208 33.1944 31.5729 33.3819 32.1354 33.5208C32.6979 33.6597 33.2639 33.75 33.8333 33.7917V31.9583L31.875 31.5625L30.4792 32.9583Z" fill="#797282"/>
</g>
<rect x="8.5" y="8.5" width="39" height="39" rx="19.5" stroke="#D9D9E3" shape-rendering="crispEdges"/>
</g>
<path d="M71.0223 30.03H66.9923V34.28H65.4023V30.03H61.3923V28.55H65.4023V24.32H66.9923V28.55H71.0223V30.03ZM82.8439 21.64V22.51C82.8439 22.7633 82.8139 22.97 82.7539 23.13C82.7006 23.2833 82.6472 23.4167 82.5939 23.53L76.7739 35.31C76.6806 35.5033 76.5506 35.6667 76.3839 35.8C76.2172 35.9333 75.9939 36 75.7139 36H74.3139L80.2239 24.39C80.3239 24.2033 80.4239 24.0333 80.5239 23.88C80.6239 23.72 80.7339 23.5733 80.8539 23.44H73.5139C73.3872 23.44 73.2772 23.3933 73.1839 23.3C73.0906 23.2067 73.0439 23.0967 73.0439 22.97V21.64H82.8439ZM91.2241 29.72C91.2241 31.1333 91.4007 32.51 91.7541 33.85C92.1074 35.19 92.6241 36.46 93.3041 37.66C93.4174 37.88 93.4474 38.05 93.3941 38.17C93.3407 38.29 93.2574 38.3867 93.1441 38.46L92.2741 38.99C91.7741 38.2233 91.3474 37.46 90.9941 36.7C90.6474 35.9467 90.3641 35.19 90.1441 34.43C89.9307 33.6633 89.7741 32.89 89.6741 32.11C89.5741 31.33 89.5241 30.5333 89.5241 29.72C89.5241 28.9 89.5741 28.1 89.6741 27.32C89.7741 26.54 89.9307 25.77 90.1441 25.01C90.3641 24.2433 90.6474 23.4833 90.9941 22.73C91.3474 21.97 91.7741 21.2067 92.2741 20.44L93.1441 20.97C93.2574 21.0433 93.3407 21.14 93.3941 21.26C93.4474 21.38 93.4174 21.55 93.3041 21.77C92.6241 22.97 92.1074 24.2433 91.7541 25.59C91.4007 26.93 91.2241 28.3067 91.2241 29.72ZM96.9852 25.88C96.9852 26.7667 97.2252 27.45 97.7052 27.93C98.1852 28.41 98.8518 28.65 99.7052 28.65C100.165 28.65 100.572 28.5767 100.925 28.43C101.278 28.2767 101.575 28.0767 101.815 27.83C102.062 27.5767 102.248 27.2867 102.375 26.96C102.502 26.6267 102.565 26.28 102.565 25.92C102.565 25.4867 102.495 25.0967 102.355 24.75C102.222 24.3967 102.032 24.1 101.785 23.86C101.538 23.6133 101.245 23.4267 100.905 23.3C100.572 23.1667 100.202 23.1 99.7952 23.1C99.3752 23.1 98.9918 23.17 98.6452 23.31C98.2985 23.4433 98.0018 23.6333 97.7552 23.88C97.5085 24.1267 97.3185 24.42 97.1852 24.76C97.0518 25.1 96.9852 25.4733 96.9852 25.88ZM100.925 30.32C101.185 29.98 101.428 29.6467 101.655 29.32C101.295 29.5933 100.892 29.8 100.445 29.94C100.005 30.08 99.5352 30.15 99.0352 30.15C98.5085 30.15 98.0018 30.06 97.5152 29.88C97.0352 29.7 96.6085 29.4367 96.2352 29.09C95.8685 28.7367 95.5752 28.3033 95.3552 27.79C95.1352 27.2767 95.0252 26.6867 95.0252 26.02C95.0252 25.3933 95.1418 24.8033 95.3752 24.25C95.6085 23.6967 95.9352 23.2167 96.3552 22.81C96.7818 22.3967 97.2885 22.0733 97.8752 21.84C98.4685 21.6 99.1185 21.48 99.8252 21.48C100.525 21.48 101.158 21.5933 101.725 21.82C102.298 22.0467 102.785 22.3667 103.185 22.78C103.585 23.1867 103.895 23.6767 104.115 24.25C104.335 24.8233 104.445 25.4533 104.445 26.14C104.445 26.56 104.405 26.96 104.325 27.34C104.252 27.72 104.142 28.09 103.995 28.45C103.855 28.81 103.682 29.1667 103.475 29.52C103.275 29.8667 103.045 30.2233 102.785 30.59L99.3352 35.54C99.2418 35.6733 99.1052 35.7833 98.9252 35.87C98.7518 35.9567 98.5518 36 98.3252 36H96.5352L100.925 30.32ZM115.857 34.51V36H108.097V34.51H111.137V25.1C111.137 24.8 111.147 24.49 111.167 24.17L108.727 26.24C108.633 26.3133 108.54 26.36 108.447 26.38C108.353 26.4 108.263 26.4033 108.177 26.39C108.097 26.3767 108.023 26.35 107.957 26.31C107.897 26.2633 107.847 26.2167 107.807 26.17L107.197 25.32L111.497 21.61H113.087V34.51H115.857ZM123.038 34.61C123.492 34.61 123.895 34.5467 124.248 34.42C124.602 34.2933 124.902 34.1167 125.148 33.89C125.395 33.6567 125.582 33.38 125.708 33.06C125.835 32.74 125.898 32.39 125.898 32.01C125.898 31.5433 125.822 31.1433 125.668 30.81C125.515 30.47 125.308 30.1933 125.048 29.98C124.788 29.76 124.485 29.6 124.138 29.5C123.792 29.3933 123.425 29.34 123.038 29.34C122.645 29.34 122.275 29.3933 121.928 29.5C121.582 29.6 121.278 29.76 121.018 29.98C120.758 30.1933 120.552 30.47 120.398 30.81C120.252 31.1433 120.178 31.5433 120.178 32.01C120.178 32.39 120.242 32.74 120.368 33.06C120.495 33.38 120.682 33.6567 120.928 33.89C121.175 34.1167 121.475 34.2933 121.828 34.42C122.182 34.5467 122.585 34.61 123.038 34.61ZM123.038 22.98C122.625 22.98 122.262 23.0433 121.948 23.17C121.642 23.29 121.385 23.4567 121.178 23.67C120.972 23.8833 120.815 24.13 120.708 24.41C120.608 24.69 120.558 24.99 120.558 25.31C120.558 25.6233 120.602 25.93 120.688 26.23C120.782 26.5233 120.925 26.7867 121.118 27.02C121.318 27.2467 121.575 27.43 121.888 27.57C122.202 27.71 122.585 27.78 123.038 27.78C123.485 27.78 123.865 27.71 124.178 27.57C124.498 27.43 124.755 27.2467 124.948 27.02C125.148 26.7867 125.292 26.5233 125.378 26.23C125.472 25.93 125.518 25.6233 125.518 25.31C125.518 24.99 125.465 24.69 125.358 24.41C125.258 24.13 125.105 23.8833 124.898 23.67C124.692 23.4567 124.432 23.29 124.118 23.17C123.812 23.0433 123.452 22.98 123.038 22.98ZM125.188 28.51C126.082 28.7767 126.758 29.2067 127.218 29.8C127.685 30.3933 127.918 31.1433 127.918 32.05C127.918 32.6767 127.798 33.2433 127.558 33.75C127.325 34.2567 126.992 34.69 126.558 35.05C126.132 35.4033 125.618 35.6767 125.018 35.87C124.418 36.0633 123.758 36.16 123.038 36.16C122.318 36.16 121.658 36.0633 121.058 35.87C120.458 35.6767 119.942 35.4033 119.508 35.05C119.082 34.69 118.748 34.2567 118.508 33.75C118.275 33.2433 118.158 32.6767 118.158 32.05C118.158 31.1433 118.388 30.3933 118.848 29.8C119.315 29.2067 119.995 28.7767 120.888 28.51C120.148 28.23 119.592 27.8133 119.218 27.26C118.845 26.7 118.658 26.0367 118.658 25.27C118.658 24.7367 118.762 24.24 118.968 23.78C119.182 23.3133 119.478 22.91 119.858 22.57C120.245 22.23 120.708 21.9633 121.248 21.77C121.788 21.5767 122.385 21.48 123.038 21.48C123.692 21.48 124.288 21.5767 124.828 21.77C125.368 21.9633 125.828 22.23 126.208 22.57C126.595 22.91 126.892 23.3133 127.098 23.78C127.312 24.24 127.418 24.7367 127.418 25.27C127.418 26.0367 127.232 26.7 126.858 27.26C126.485 27.8133 125.928 28.23 125.188 28.51ZM131.66 29.72C131.66 28.3067 131.48 26.93 131.12 25.59C130.767 24.2433 130.25 22.97 129.57 21.77C129.457 21.55 129.427 21.38 129.48 21.26C129.54 21.14 129.627 21.0433 129.74 20.97L130.61 20.44C131.11 21.2067 131.533 21.97 131.88 22.73C132.227 23.4833 132.51 24.2433 132.73 25.01C132.95 25.77 133.11 26.54 133.21 27.32C133.31 28.1 133.36 28.9 133.36 29.72C133.36 30.5333 133.31 31.33 133.21 32.11C133.11 32.89 132.95 33.6633 132.73 34.43C132.51 35.19 132.227 35.9467 131.88 36.7C131.533 37.46 131.11 38.2233 130.61 38.99L129.74 38.46C129.627 38.3867 129.54 38.29 129.48 38.17C129.427 38.05 129.457 37.88 129.57 37.66C130.25 36.46 130.767 35.19 131.12 33.85C131.48 32.51 131.66 31.1333 131.66 29.72ZM143 27C143.733 26.8467 144.396 26.77 144.99 26.77C145.736 26.77 146.396 26.8833 146.97 27.11C147.543 27.33 148.023 27.6367 148.41 28.03C148.803 28.4167 149.096 28.8767 149.29 29.41C149.49 29.9367 149.59 30.51 149.59 31.13C149.59 31.89 149.456 32.58 149.19 33.2C148.923 33.82 148.556 34.35 148.09 34.79C147.623 35.23 147.07 35.57 146.43 35.81C145.796 36.0433 145.113 36.16 144.38 36.16C143.946 36.16 143.533 36.1167 143.14 36.03C142.753 35.9433 142.39 35.83 142.05 35.69C141.71 35.5433 141.393 35.3767 141.1 35.19C140.813 35.0033 140.556 34.8067 140.33 34.6L140.93 33.76C141.056 33.5733 141.226 33.48 141.44 33.48C141.58 33.48 141.733 33.5333 141.9 33.64C142.073 33.74 142.276 33.8533 142.51 33.98C142.743 34.1067 143.02 34.2233 143.34 34.33C143.66 34.43 144.04 34.48 144.48 34.48C144.966 34.48 145.403 34.4033 145.79 34.25C146.183 34.09 146.513 33.8667 146.78 33.58C147.053 33.2933 147.26 32.95 147.4 32.55C147.546 32.15 147.62 31.7067 147.62 31.22C147.62 30.7867 147.556 30.3967 147.43 30.05C147.303 29.7033 147.113 29.4067 146.86 29.16C146.606 28.9133 146.29 28.7267 145.91 28.6C145.53 28.4667 145.086 28.4 144.58 28.4C143.873 28.4 143.12 28.5267 142.32 28.78L141.09 28.42L142.26 21.64H149.14V22.49C149.14 22.77 149.05 23 148.87 23.18C148.696 23.3533 148.403 23.44 147.99 23.44H143.62L143 27ZM158.131 30.76V25.16C158.131 24.9667 158.134 24.7633 158.141 24.55C158.154 24.33 158.178 24.1033 158.211 23.87L153.181 30.76H158.131ZM161.921 30.76V31.89C161.921 32.0033 161.884 32.1 161.811 32.18C161.738 32.26 161.634 32.3 161.501 32.3H159.841V36H158.131V32.3H151.831C151.684 32.3 151.561 32.26 151.461 32.18C151.361 32.0933 151.294 31.9867 151.261 31.86L151.061 30.86L158.001 21.63H159.841V30.76H161.921ZM173.493 28.82C173.493 30.0733 173.356 31.16 173.083 32.08C172.816 33 172.446 33.7633 171.973 34.37C171.506 34.97 170.953 35.4167 170.313 35.71C169.679 36.0033 168.996 36.15 168.263 36.15C167.529 36.15 166.843 36.0033 166.203 35.71C165.569 35.4167 165.019 34.97 164.553 34.37C164.086 33.7633 163.719 33 163.453 32.08C163.186 31.16 163.053 30.0733 163.053 28.82C163.053 27.5667 163.186 26.48 163.453 25.56C163.719 24.6333 164.086 23.87 164.553 23.27C165.019 22.6633 165.569 22.2133 166.203 21.92C166.843 21.6267 167.529 21.48 168.263 21.48C168.996 21.48 169.679 21.6267 170.313 21.92C170.953 22.2133 171.506 22.6633 171.973 23.27C172.446 23.87 172.816 24.6333 173.083 25.56C173.356 26.48 173.493 27.5667 173.493 28.82ZM171.473 28.82C171.473 27.74 171.383 26.8367 171.203 26.11C171.029 25.3833 170.793 24.8 170.493 24.36C170.199 23.9133 169.859 23.5967 169.473 23.41C169.086 23.2233 168.683 23.13 168.263 23.13C167.843 23.13 167.439 23.2233 167.053 23.41C166.666 23.5967 166.323 23.9133 166.023 24.36C165.729 24.8 165.496 25.3833 165.323 26.11C165.149 26.8367 165.063 27.74 165.063 28.82C165.063 29.9 165.149 30.8033 165.323 31.53C165.496 32.2567 165.729 32.84 166.023 33.28C166.323 33.72 166.666 34.0333 167.053 34.22C167.439 34.4067 167.843 34.5 168.263 34.5C168.683 34.5 169.086 34.4067 169.473 34.22C169.859 34.0333 170.199 33.72 170.493 33.28C170.793 32.84 171.029 32.2567 171.203 31.53C171.383 30.8033 171.473 29.9 171.473 28.82ZM189.973 21.64V22.51C189.973 22.7633 189.943 22.97 189.883 23.13C189.829 23.2833 189.776 23.4167 189.723 23.53L183.903 35.31C183.809 35.5033 183.679 35.6667 183.513 35.8C183.346 35.9333 183.123 36 182.843 36H181.443L187.353 24.39C187.453 24.2033 187.553 24.0333 187.653 23.88C187.753 23.72 187.863 23.5733 187.983 23.44H180.643C180.516 23.44 180.406 23.3933 180.313 23.3C180.219 23.2067 180.173 23.0967 180.173 22.97V21.64H189.973ZM194.464 27C195.198 26.8467 195.861 26.77 196.454 26.77C197.201 26.77 197.861 26.8833 198.434 27.11C199.008 27.33 199.488 27.6367 199.874 28.03C200.268 28.4167 200.561 28.8767 200.754 29.41C200.954 29.9367 201.054 30.51 201.054 31.13C201.054 31.89 200.921 32.58 200.654 33.2C200.388 33.82 200.021 34.35 199.554 34.79C199.088 35.23 198.534 35.57 197.894 35.81C197.261 36.0433 196.578 36.16 195.844 36.16C195.411 36.16 194.998 36.1167 194.604 36.03C194.218 35.9433 193.854 35.83 193.514 35.69C193.174 35.5433 192.858 35.3767 192.564 35.19C192.278 35.0033 192.021 34.8067 191.794 34.6L192.394 33.76C192.521 33.5733 192.691 33.48 192.904 33.48C193.044 33.48 193.198 33.5333 193.364 33.64C193.538 33.74 193.741 33.8533 193.974 33.98C194.208 34.1067 194.484 34.2233 194.804 34.33C195.124 34.43 195.504 34.48 195.944 34.48C196.431 34.48 196.868 34.4033 197.254 34.25C197.648 34.09 197.978 33.8667 198.244 33.58C198.518 33.2933 198.724 32.95 198.864 32.55C199.011 32.15 199.084 31.7067 199.084 31.22C199.084 30.7867 199.021 30.3967 198.894 30.05C198.768 29.7033 198.578 29.4067 198.324 29.16C198.071 28.9133 197.754 28.7267 197.374 28.6C196.994 28.4667 196.551 28.4 196.044 28.4C195.338 28.4 194.584 28.5267 193.784 28.78L192.554 28.42L193.724 21.64H200.604V22.49C200.604 22.77 200.514 23 200.334 23.18C200.161 23.3533 199.868 23.44 199.454 23.44H195.084L194.464 27ZM211.125 27C211.858 26.8467 212.521 26.77 213.115 26.77C213.861 26.77 214.521 26.8833 215.095 27.11C215.668 27.33 216.148 27.6367 216.535 28.03C216.928 28.4167 217.221 28.8767 217.415 29.41C217.615 29.9367 217.715 30.51 217.715 31.13C217.715 31.89 217.581 32.58 217.315 33.2C217.048 33.82 216.681 34.35 216.215 34.79C215.748 35.23 215.195 35.57 214.555 35.81C213.921 36.0433 213.238 36.16 212.505 36.16C212.071 36.16 211.658 36.1167 211.265 36.03C210.878 35.9433 210.515 35.83 210.175 35.69C209.835 35.5433 209.518 35.3767 209.225 35.19C208.938 35.0033 208.681 34.8067 208.455 34.6L209.055 33.76C209.181 33.5733 209.351 33.48 209.565 33.48C209.705 33.48 209.858 33.5333 210.025 33.64C210.198 33.74 210.401 33.8533 210.635 33.98C210.868 34.1067 211.145 34.2233 211.465 34.33C211.785 34.43 212.165 34.48 212.605 34.48C213.091 34.48 213.528 34.4033 213.915 34.25C214.308 34.09 214.638 33.8667 214.905 33.58C215.178 33.2933 215.385 32.95 215.525 32.55C215.671 32.15 215.745 31.7067 215.745 31.22C215.745 30.7867 215.681 30.3967 215.555 30.05C215.428 29.7033 215.238 29.4067 214.985 29.16C214.731 28.9133 214.415 28.7267 214.035 28.6C213.655 28.4667 213.211 28.4 212.705 28.4C211.998 28.4 211.245 28.5267 210.445 28.78L209.215 28.42L210.385 21.64H217.265V22.49C217.265 22.77 217.175 23 216.995 23.18C216.821 23.3533 216.528 23.44 216.115 23.44H211.745L211.125 27ZM229.216 34.51V36H221.456V34.51H224.496V25.1C224.496 24.8 224.506 24.49 224.526 24.17L222.086 26.24C221.993 26.3133 221.899 26.36 221.806 26.38C221.713 26.4 221.623 26.4033 221.536 26.39C221.456 26.3767 221.383 26.35 221.316 26.31C221.256 26.2633 221.206 26.2167 221.166 26.17L220.556 25.32L224.856 21.61H226.446V34.51H229.216Z" fill="#797282"/>
<defs>
<filter id="filter0_bd_19_458" x="-12" y="-12" width="80" height="80" filterUnits="userSpaceOnUse" color-interpolation-filters="sRGB">
<feFlood flood-opacity="0" result="BackgroundImageFix"/>
<feGaussianBlur in="BackgroundImageFix" stdDeviation="10"/>
<feComposite in2="SourceAlpha" operator="in" result="effect1_backgroundBlur_19_458"/>
<feColorMatrix in="SourceAlpha" type="matrix" values="0 0 0 0 0 0 0 0 0 0 0 0 0 0 0 0 0 0 127 0" result="hardAlpha"/>
<feOffset/>
<feGaussianBlur stdDeviation="4"/>
<feComposite in2="hardAlpha" operator="out"/>
<feColorMatrix type="matrix" values="0 0 0 0 0.843137 0 0 0 0 0.356863 0 0 0 0 0.2 0 0 0 0.1 0"/>
<feBlend mode="normal" in2="effect1_backgroundBlur_19_458" result="effect2_dropShadow_19_458"/>
<feBlend mode="normal" in="SourceGraphic" in2="effect2_dropShadow_19_458" result="shape"/>
</filter>
</defs>
</svg>
