<svg width="215" height="32" viewBox="0 0 215 32" fill="none" xmlns="http://www.w3.org/2000/svg">
<mask id="mask0_550_901" style="mask-type:alpha" maskUnits="userSpaceOnUse" x="0" y="0" width="32" height="32">
<rect width="32" height="32" fill="#D9D9D9"/>
</mask>
<g mask="url(#mask0_550_901)">
<path d="M25.2411 26.6666C22.9932 26.6666 20.6889 26.1038 18.3282 24.9781C15.9676 23.8525 13.7744 22.2726 11.7487 20.2384C9.7231 18.2042 8.14746 16.011 7.02184 13.6589C5.8962 11.3068 5.33337 9.00675 5.33337 6.75888C5.33337 6.35155 5.46671 6.01212 5.73337 5.74058C6.00004 5.46903 6.33337 5.33325 6.73337 5.33325H10.0308C10.3932 5.33325 10.7095 5.44735 10.9795 5.67555C11.2496 5.90375 11.4325 6.19648 11.5282 6.55375L12.1898 9.73325C12.2513 10.1059 12.2402 10.4315 12.1564 10.7102C12.0727 10.9888 11.9248 11.217 11.7129 11.3948L8.78721 14.123C9.33423 15.1162 9.93894 16.0388 10.6013 16.891C11.2637 17.7431 11.9701 18.5504 12.7205 19.3128C13.4949 20.0871 14.3283 20.8072 15.2205 21.473C16.1129 22.1388 17.0923 22.7674 18.159 23.3589L21.0103 20.4563C21.2274 20.2221 21.4714 20.0679 21.7423 19.9935C22.0133 19.9191 22.3129 19.9042 22.6411 19.9486L25.4462 20.523C25.8086 20.6119 26.1026 20.7944 26.3282 21.0704C26.5539 21.3465 26.6667 21.6632 26.6667 22.0204V25.2666C26.6667 25.6666 26.5309 25.9999 26.2594 26.2666C25.9878 26.5333 25.6484 26.6666 25.2411 26.6666ZM8.16157 12.8717L10.7205 10.5179C10.806 10.4495 10.8616 10.3555 10.8872 10.2358C10.9129 10.1162 10.9086 10.005 10.8744 9.90249L10.2821 7.07685C10.2479 6.9401 10.1881 6.83753 10.1026 6.76915C10.0171 6.70077 9.90603 6.66659 9.76927 6.66659H7.03337C6.93082 6.66659 6.84535 6.70077 6.77697 6.76915C6.7086 6.83753 6.67441 6.923 6.67441 7.02555C6.70005 7.93666 6.84278 8.88795 7.10261 9.87942C7.36243 10.8709 7.71542 11.8683 8.16157 12.8717ZM19.4282 23.9845C20.3291 24.4307 21.2894 24.7606 22.309 24.9743C23.3287 25.188 24.2171 25.3025 24.9744 25.3179C25.077 25.3179 25.1624 25.2837 25.2308 25.2153C25.2992 25.1469 25.3334 25.0615 25.3334 24.9589V22.282C25.3334 22.1452 25.2992 22.0341 25.2308 21.9487C25.1624 21.8632 25.0599 21.8033 24.9231 21.7692L22.4564 21.264C22.3539 21.2298 22.2641 21.2256 22.1872 21.2512C22.1103 21.2768 22.0291 21.3324 21.9436 21.4179L19.4282 23.9845Z" fill="white"/>
</g>
<path d="M44.84 20.5V11.5H46.98V20.5H44.84ZM41.3 17V15H50.52V17H41.3ZM54.8216 23L60.6016 10.04L61.2816 11.2H53.3416L54.5816 9.94V13.58H52.1616V9H63.0416V10.74L57.6016 23H54.8216ZM73.4169 26.88C72.6302 25.6667 72.0235 24.2667 71.5969 22.68C71.1835 21.08 70.9769 19.36 70.9769 17.52C70.9769 15.68 71.1835 13.96 71.5969 12.36C72.0235 10.7467 72.6302 9.34667 73.4169 8.16H75.7969C74.9835 9.62667 74.3835 11.1267 73.9969 12.66C73.6235 14.18 73.4369 15.8 73.4369 17.52C73.4369 19.24 73.6235 20.8667 73.9969 22.4C74.3835 23.92 74.9835 25.4133 75.7969 26.88H73.4169ZM81.8305 8.8C83.1105 8.8 84.1971 9.07333 85.0905 9.62C85.9971 10.1533 86.6905 10.9333 87.1705 11.96C87.6505 12.9867 87.8905 14.2533 87.8905 15.76C87.8905 17.36 87.5971 18.7133 87.0105 19.82C86.4371 20.9267 85.6371 21.7667 84.6105 22.34C83.5838 22.9133 82.3905 23.2 81.0305 23.2C80.3238 23.2 79.6505 23.1267 79.0105 22.98C78.3705 22.8333 77.8171 22.6067 77.3505 22.3L78.3105 20.34C78.6971 20.5933 79.1171 20.7733 79.5705 20.88C80.0238 20.9733 80.4905 21.02 80.9705 21.02C82.2905 21.02 83.3371 20.6133 84.1105 19.8C84.8838 18.9867 85.2705 17.7867 85.2705 16.2C85.2705 15.9467 85.2638 15.6533 85.2505 15.32C85.2371 14.9733 85.1905 14.6267 85.1105 14.28L85.9105 15.16C85.6838 15.7067 85.3571 16.1667 84.9305 16.54C84.5038 16.9 84.0038 17.1733 83.4305 17.36C82.8571 17.5467 82.2238 17.64 81.5305 17.64C80.6238 17.64 79.8038 17.4667 79.0705 17.12C78.3505 16.76 77.7771 16.26 77.3505 15.62C76.9238 14.9667 76.7105 14.2067 76.7105 13.34C76.7105 12.4067 76.9371 11.6067 77.3905 10.94C77.8438 10.26 78.4571 9.73333 79.2305 9.36C80.0171 8.98667 80.8838 8.8 81.8305 8.8ZM81.9705 10.84C81.4371 10.84 80.9638 10.94 80.5505 11.14C80.1371 11.3267 79.8105 11.6 79.5705 11.96C79.3438 12.3067 79.2305 12.7267 79.2305 13.22C79.2305 13.9533 79.4838 14.5333 79.9905 14.96C80.4971 15.3867 81.1771 15.6 82.0305 15.6C82.5905 15.6 83.0838 15.5 83.5105 15.3C83.9371 15.0867 84.2705 14.8 84.5105 14.44C84.7505 14.0667 84.8705 13.6533 84.8705 13.2C84.8705 12.76 84.7571 12.3667 84.5305 12.02C84.3038 11.66 83.9771 11.3733 83.5505 11.16C83.1238 10.9467 82.5971 10.84 81.9705 10.84ZM91.87 23V10L93.01 11.18H88.91V9H94.47V23H91.87ZM102.867 23.2C101.707 23.2 100.701 23.0267 99.8472 22.68C98.9939 22.3333 98.3339 21.8467 97.8672 21.22C97.4005 20.58 97.1672 19.8333 97.1672 18.98C97.1672 18.1267 97.3939 17.4067 97.8472 16.82C98.3005 16.2333 98.9539 15.7867 99.8072 15.48C100.661 15.1733 101.681 15.02 102.867 15.02C104.054 15.02 105.074 15.1733 105.927 15.48C106.794 15.7867 107.454 16.24 107.907 16.84C108.374 17.4267 108.607 18.14 108.607 18.98C108.607 19.8333 108.367 20.58 107.887 21.22C107.421 21.8467 106.754 22.3333 105.887 22.68C105.034 23.0267 104.027 23.2 102.867 23.2ZM102.867 21.16C103.827 21.16 104.587 20.96 105.147 20.56C105.707 20.16 105.987 19.6067 105.987 18.9C105.987 18.2067 105.707 17.66 105.147 17.26C104.587 16.86 103.827 16.66 102.867 16.66C101.907 16.66 101.154 16.86 100.607 17.26C100.061 17.66 99.7872 18.2067 99.7872 18.9C99.7872 19.6067 100.061 20.16 100.607 20.56C101.154 20.96 101.907 21.16 102.867 21.16ZM102.867 16.38C101.787 16.38 100.861 16.24 100.087 15.96C99.3139 15.6667 98.7139 15.2467 98.2872 14.7C97.8739 14.14 97.6672 13.4733 97.6672 12.7C97.6672 11.9 97.8805 11.2133 98.3072 10.64C98.7472 10.0533 99.3605 9.6 100.147 9.28C100.934 8.96 101.841 8.8 102.867 8.8C103.907 8.8 104.821 8.96 105.607 9.28C106.394 9.6 107.007 10.0533 107.447 10.64C107.887 11.2133 108.107 11.9 108.107 12.7C108.107 13.4733 107.894 14.14 107.467 14.7C107.054 15.2467 106.454 15.6667 105.667 15.96C104.881 16.24 103.947 16.38 102.867 16.38ZM102.867 14.78C103.694 14.78 104.347 14.6067 104.827 14.26C105.307 13.9 105.547 13.42 105.547 12.82C105.547 12.1933 105.301 11.7067 104.807 11.36C104.314 11.0133 103.667 10.84 102.867 10.84C102.067 10.84 101.427 11.0133 100.947 11.36C100.467 11.7067 100.227 12.1933 100.227 12.82C100.227 13.42 100.461 13.9 100.927 14.26C101.407 14.6067 102.054 14.78 102.867 14.78ZM112.234 26.88H109.854C110.681 25.4133 111.281 23.92 111.654 22.4C112.041 20.8667 112.234 19.24 112.234 17.52C112.234 15.8 112.041 14.18 111.654 12.66C111.281 11.1267 110.681 9.62667 109.854 8.16H112.234C113.034 9.34667 113.641 10.7467 114.054 12.36C114.467 13.96 114.674 15.68 114.674 17.52C114.674 19.36 114.467 21.08 114.054 22.68C113.641 24.2667 113.034 25.6667 112.234 26.88ZM127.415 23.2C126.428 23.2 125.461 23.06 124.515 22.78C123.581 22.4867 122.795 22.0867 122.155 21.58L123.255 19.56C123.761 19.9733 124.375 20.3067 125.095 20.56C125.828 20.8133 126.588 20.94 127.375 20.94C128.295 20.94 129.015 20.7467 129.535 20.36C130.068 19.9733 130.335 19.4533 130.335 18.8C130.335 18.36 130.221 17.9733 129.995 17.64C129.781 17.3067 129.395 17.0533 128.835 16.88C128.288 16.7067 127.535 16.62 126.575 16.62H123.195L123.915 9H132.135V11.18H124.875L126.235 9.94L125.695 15.64L124.335 14.42H127.155C128.541 14.42 129.655 14.6067 130.495 14.98C131.348 15.34 131.968 15.8467 132.355 16.5C132.755 17.14 132.955 17.8733 132.955 18.7C132.955 19.5133 132.755 20.26 132.355 20.94C131.955 21.62 131.341 22.1667 130.515 22.58C129.701 22.9933 128.668 23.2 127.415 23.2ZM134.254 19.82V18.02L141.154 9H143.934L137.134 18.02L135.834 17.62H146.934V19.82H134.254ZM141.934 23V19.82L142.014 17.62V14.8H144.454V23H141.934ZM153.868 23.2C152.762 23.2 151.762 22.92 150.868 22.36C149.988 21.8 149.295 20.9867 148.788 19.92C148.282 18.84 148.028 17.5333 148.028 16C148.028 14.4667 148.282 13.1667 148.788 12.1C149.295 11.02 149.988 10.2 150.868 9.64C151.762 9.08 152.762 8.8 153.868 8.8C154.988 8.8 155.988 9.08 156.868 9.64C157.748 10.2 158.442 11.02 158.948 12.1C159.468 13.1667 159.728 14.4667 159.728 16C159.728 17.5333 159.468 18.84 158.948 19.92C158.442 20.9867 157.748 21.8 156.868 22.36C155.988 22.92 154.988 23.2 153.868 23.2ZM153.868 20.94C154.522 20.94 155.088 20.7667 155.568 20.42C156.048 20.06 156.422 19.5133 156.688 18.78C156.968 18.0467 157.108 17.12 157.108 16C157.108 14.8667 156.968 13.94 156.688 13.22C156.422 12.4867 156.048 11.9467 155.568 11.6C155.088 11.24 154.522 11.06 153.868 11.06C153.242 11.06 152.682 11.24 152.188 11.6C151.708 11.9467 151.328 12.4867 151.048 13.22C150.782 13.94 150.648 14.8667 150.648 16C150.648 17.12 150.782 18.0467 151.048 18.78C151.328 19.5133 151.708 20.06 152.188 20.42C152.682 20.7667 153.242 20.94 153.868 20.94ZM169.353 23L175.133 10.04L175.813 11.2H167.873L169.113 9.94V13.58H166.693V9H177.573V10.74L172.133 23H169.353ZM183.469 23.2C182.483 23.2 181.516 23.06 180.569 22.78C179.636 22.4867 178.849 22.0867 178.209 21.58L179.309 19.56C179.816 19.9733 180.429 20.3067 181.149 20.56C181.883 20.8133 182.643 20.94 183.429 20.94C184.349 20.94 185.069 20.7467 185.589 20.36C186.123 19.9733 186.389 19.4533 186.389 18.8C186.389 18.36 186.276 17.9733 186.049 17.64C185.836 17.3067 185.449 17.0533 184.889 16.88C184.343 16.7067 183.589 16.62 182.629 16.62H179.249L179.969 9H188.189V11.18H180.929L182.289 9.94L181.749 15.64L180.389 14.42H183.209C184.596 14.42 185.709 14.6067 186.549 14.98C187.403 15.34 188.023 15.8467 188.409 16.5C188.809 17.14 189.009 17.8733 189.009 18.7C189.009 19.5133 188.809 20.26 188.409 20.94C188.009 21.62 187.396 22.1667 186.569 22.58C185.756 22.9933 184.723 23.2 183.469 23.2ZM200.676 23.2C199.69 23.2 198.723 23.06 197.776 22.78C196.843 22.4867 196.056 22.0867 195.416 21.58L196.516 19.56C197.023 19.9733 197.636 20.3067 198.356 20.56C199.09 20.8133 199.85 20.94 200.636 20.94C201.556 20.94 202.276 20.7467 202.796 20.36C203.33 19.9733 203.596 19.4533 203.596 18.8C203.596 18.36 203.483 17.9733 203.256 17.64C203.043 17.3067 202.656 17.0533 202.096 16.88C201.55 16.7067 200.796 16.62 199.836 16.62H196.456L197.176 9H205.396V11.18H198.136L199.496 9.94L198.956 15.64L197.596 14.42H200.416C201.803 14.42 202.916 14.6067 203.756 14.98C204.61 15.34 205.23 15.8467 205.616 16.5C206.016 17.14 206.216 17.8733 206.216 18.7C206.216 19.5133 206.016 20.26 205.616 20.94C205.216 21.62 204.603 22.1667 203.776 22.58C202.963 22.9933 201.93 23.2 200.676 23.2ZM209.956 23V10L211.096 11.18H206.996V9H212.556V23H209.956Z" fill="white"/>
</svg>
