<svg width="65" height="64" viewBox="0 0 65 64" fill="none" xmlns="http://www.w3.org/2000/svg">
<path d="M55.507 40.2901C54.8154 37.7521 53.0505 35.7188 50.7221 34.6664C50.6193 32.6071 49.9014 30.644 48.6783 29.0158H50.4626C52.9111 29.0158 54.903 27.0238 54.903 24.5753V21.7987C54.903 19.3503 52.911 17.3584 50.4626 17.3584H45.4374C45.4374 15.583 45.4374 10.6069 45.4374 8.81588C45.4374 8.29813 45.0178 7.87838 44.4999 7.87838C43.982 7.87838 43.5624 8.29813 43.5624 8.81588V13.8638C43.1731 13.936 42.7076 14.0659 42.2435 14.298V9.187C42.2435 7.25938 40.6753 5.69112 38.7476 5.69112H36.4229C35.2386 5.69112 34.5693 6.19325 34.0314 6.59675C33.5679 6.9445 33.233 7.19575 32.4999 7.19575C31.7601 7.19575 31.426 6.94425 30.9635 6.59625C30.4278 6.193 29.761 5.69125 28.5769 5.69125H26.2521C24.3245 5.69125 22.7563 7.2595 22.7563 9.18713V14.2981C22.2921 14.066 21.8266 13.9361 21.4374 13.8639V8.81588C21.4376 4.98863 24.5513 1.875 28.3785 1.875H36.6215C38.9711 1.875 41.1435 3.05025 42.4326 5.01875C42.7163 5.45188 43.2973 5.57313 43.7306 5.2895C44.1638 5.00575 44.285 4.42475 44.0013 3.99163C42.3644 1.49213 39.6056 0 36.6215 0H28.3715C28.3704 0 28.3693 0 28.3681 0C23.5119 0.00575 19.5626 3.95837 19.5626 8.81588V17.3584H14.5375C12.089 17.3584 10.097 19.3504 10.097 21.7987V24.5751C10.097 27.0236 12.089 29.0156 14.5375 29.0156H16.3219C15.0989 30.6439 14.3809 32.607 14.278 34.6661C11.9496 35.7185 10.1848 37.7519 9.49314 40.29C9.30201 40.9912 9.20514 41.758 9.20514 42.569V59.5649C9.20514 62.0104 11.1948 63.9999 13.6401 63.9999H51.3599C53.8053 63.9999 55.7948 62.0104 55.7948 59.5649C55.7948 53.2531 55.7948 48.8709 55.7948 42.569C55.7949 41.758 55.698 40.9913 55.507 40.2901ZM53.6979 40.783C53.8451 41.3235 53.9198 41.9245 53.9198 42.5691V49.1111H48.4648C48.2426 49.1111 48.0256 49.1327 47.8148 49.1722C47.105 47.5233 46.7836 45.8717 46.7836 43.9219V35.5472L48.5106 35.9061C51.0334 36.4302 53.021 38.299 53.6979 40.783ZM20.0614 56.5611C20.8129 55.7455 20.8168 55.76 20.8894 55.6509C23.366 51.9315 24.4226 48.4238 24.4226 43.9219V34.2576L26.5531 33.815C27.0841 36.6149 29.548 38.7393 32.5 38.7393C35.4521 38.7393 37.916 36.6149 38.447 33.815L40.5774 34.2576V43.9219C40.5774 48.4239 41.634 51.9315 44.1108 55.6509C44.184 55.7612 44.2105 55.7708 44.9388 56.5611V62.125H20.0614V56.5611ZM32.4895 30.4995H32.5C32.5 30.4995 32.507 30.4995 32.5105 30.4995C33.9844 30.483 35.3773 30.1945 36.6794 29.6414V32.6851C36.6794 34.9896 34.8045 36.8644 32.5 36.8644C30.1955 36.8644 28.3208 34.9895 28.3208 32.6851V29.6413C29.6228 30.1944 31.0158 30.483 32.4895 30.4995ZM46.1296 49.9984C45.3999 50.6449 44.9388 51.588 44.9388 52.6372V53.4421C43.1844 50.4541 42.4524 47.6042 42.4524 43.9219V33.1133C42.4524 33.0423 42.4894 32.9986 42.5204 32.9746C42.5515 32.9506 42.6033 32.926 42.6718 32.9436L44.7776 33.4914C44.8548 33.5114 44.9088 33.5811 44.9088 33.6609V43.9217C44.9088 46.1747 45.2893 48.0821 46.1296 49.9984ZM48.7808 34.0471L46.7825 33.6319C46.7695 32.7108 46.1434 31.9091 45.2495 31.6768L43.1436 31.1291C42.5246 30.9679 41.8795 31.1001 41.3735 31.4912C41.0723 31.7241 40.8498 32.0289 40.7171 32.3716L38.5543 31.9223V29.0156H46.1594C47.5991 30.3472 48.5191 32.1254 48.7808 34.0471ZM53.0281 21.7987V24.5751C53.0281 25.9897 51.8773 27.1406 50.4628 27.1406H40.3308C41.8071 25.5994 42.7415 23.5665 42.9819 21.3701C44.1769 21.2722 45.1513 20.3855 45.3839 19.2332H50.4628C51.8773 19.2334 53.0281 20.3843 53.0281 21.7987ZM22.4589 16.3563C22.8246 16.7181 23.3688 16.8246 23.8455 16.6257C24.323 16.4265 24.6316 15.9636 24.6316 15.4465V9.187C24.6316 8.29325 25.3588 7.56612 26.2525 7.56612H28.5773C29.1346 7.56612 29.3988 7.76487 29.8364 8.09425C30.3839 8.50637 31.1338 9.07075 32.5003 9.07075C33.8585 9.07075 34.6089 8.50775 35.1569 8.09675C35.5979 7.766 35.8641 7.56625 36.4233 7.56625H38.748C39.6418 7.56625 40.3689 8.29338 40.3689 9.18713V15.4466C40.3689 15.9636 40.6774 16.4265 41.1549 16.6257C41.6308 16.8244 42.175 16.7186 42.5416 16.3561C42.8386 16.0623 43.218 15.8914 43.5628 15.7907V18.7031C43.5628 19.1449 43.2034 19.5042 42.7616 19.5042H42.1041C41.5943 19.5042 41.1778 19.9118 41.1669 20.4216C41.1171 22.7412 40.1313 24.8956 38.4623 26.3328C36.7275 27.8264 34.7216 28.5974 32.5004 28.6245C30.279 28.5974 28.2731 27.8263 26.5385 26.3328C24.8695 24.8956 23.8838 22.7412 23.834 20.4217C23.8231 19.9119 23.4068 19.5044 22.8968 19.5044H22.2391C21.7974 19.5044 21.438 19.145 21.438 18.7033V15.794C21.784 15.8947 22.1646 16.0651 22.4589 16.3563ZM11.972 24.5753V21.7987C11.972 20.3843 13.1229 19.2334 14.5375 19.2334H19.6163C19.8489 20.3856 20.8233 21.2724 22.0183 21.3703C22.2586 23.5666 23.1929 25.5994 24.6694 27.1408H14.5375C13.1229 27.1406 11.972 25.9897 11.972 24.5753ZM26.4458 29.0156V31.9223L24.2828 32.3716C24.1501 32.0289 23.9276 31.7241 23.6264 31.4912C23.1205 31.1 22.4754 30.9679 21.8563 31.1291L19.7504 31.6768C18.8565 31.9093 18.2304 32.7108 18.2174 33.6319L16.2193 34.047C16.4809 32.1253 17.4008 30.3472 18.8406 29.0156H26.4458ZM11.0801 42.5691C11.0801 41.9246 11.1549 41.3237 11.3021 40.783C11.979 38.2989 13.9665 36.4302 16.4893 35.906L18.2161 35.5471V40.2467C18.2161 40.7645 18.6359 41.1842 19.1536 41.1842C19.6714 41.1842 20.0911 40.7645 20.0911 40.2467V33.6609C20.0911 33.5811 20.145 33.5114 20.2223 33.4914L22.3283 32.9436C22.3969 32.9255 22.4485 32.9506 22.4795 32.9746C22.5106 32.9986 22.5475 33.0423 22.5475 33.1133V43.9219C22.5475 47.6041 21.8155 50.454 20.0613 53.442V52.6372C20.0613 51.588 19.6001 50.645 18.8704 49.9985C19.6123 48.3016 19.9983 46.5895 20.0761 44.6735C20.0971 44.1561 19.6949 43.7197 19.1775 43.6987C18.6594 43.6761 18.2236 44.08 18.2028 44.5974C18.1349 46.268 17.8164 47.7095 17.185 49.1722C16.9741 49.1327 16.7571 49.1113 16.535 49.1113H11.08L11.0801 42.5691ZM11.0801 59.565V50.9861H16.5351C17.4456 50.9861 18.1863 51.7267 18.1863 52.6372V62.125H13.64C12.2286 62.125 11.0801 60.9766 11.0801 59.565ZM51.3599 62.125H46.8138V52.6372C46.8138 51.7267 47.5545 50.9861 48.4649 50.9861H53.9199V59.565C53.9199 60.9766 52.7714 62.125 51.3599 62.125Z" fill="white"/>
</svg>
