<svg width="65" height="64" viewBox="0 0 65 64" fill="none" xmlns="http://www.w3.org/2000/svg">
<g clip-path="url(#clip0_830_396)">
<path d="M64.1352 10.5926C63.9049 10.4125 63.6044 10.3487 63.3208 10.4186L42.8502 15.494L28.458 11.9257C27.9484 11.7996 27.4331 12.11 27.3067 12.6196C27.1804 13.1291 27.4911 13.6445 28.0006 13.7708L41.8992 17.2169V28.0058C41.8992 28.5307 42.3248 28.9563 42.8497 28.9563C43.3746 28.9563 43.8002 28.5307 43.8002 28.0058V17.2171L62.5989 12.5561V54.7625L43.8002 59.4235V48.2188C43.8002 47.6938 43.3746 47.2683 42.8497 47.2683C42.3248 47.2683 41.8992 47.6938 41.8992 48.2188V59.4238L32.738 57.1522C32.2282 57.0262 31.713 57.3365 31.5868 57.8461C31.4604 58.3557 31.771 58.8711 32.2805 58.9974L42.6204 61.5613C42.622 61.5616 42.6244 61.5601 42.6266 61.5591C42.6998 61.5768 42.7742 61.5889 42.8497 61.5889C42.926 61.5889 43.0028 61.5796 43.0783 61.561L63.7781 56.4287C64.2021 56.3235 64.4998 55.9429 64.4998 55.5061V11.3414C64.4999 11.0489 64.3655 10.7728 64.1352 10.5926Z" fill="white"/>
<path d="M29.609 56.3764L23.1005 54.7626V34.0856C23.1005 33.5607 22.6749 33.1351 22.15 33.1351C21.6251 33.1351 21.1995 33.5607 21.1995 34.0856V54.7626L2.401 59.4238V40.9325C2.401 40.4076 1.97543 39.982 1.4505 39.982C0.925571 39.982 0.5 40.4076 0.5 40.9325V60.6388C0.5 60.9312 0.634591 61.2073 0.864866 61.3874C1.0338 61.5195 1.24038 61.5893 1.45063 61.5893C1.52692 61.5893 1.60372 61.5801 1.67938 61.5614L22.15 56.4855L29.1515 58.2215C29.2283 58.2405 29.3052 58.2498 29.381 58.2498C29.8076 58.2498 30.1955 57.9604 30.3028 57.5278C30.4291 57.0182 30.1185 56.5028 29.609 56.3764Z" fill="white"/>
<path d="M1.4505 38.7145C1.97543 38.7145 2.401 38.289 2.401 37.764V17.2169L5.94979 16.3372C6.45939 16.2109 6.77001 15.6956 6.64378 15.186C6.51743 14.6764 6.00188 14.3658 5.49254 14.492L1.22187 15.5506C0.797824 15.6558 0.5 16.0364 0.5 16.4732V37.764C0.5 38.289 0.925571 38.7145 1.4505 38.7145Z" fill="white"/>
<path d="M6.28613 21.3523C6.28613 27.851 11.5732 33.138 18.0718 33.138C24.5705 33.138 29.8575 27.851 29.8575 21.3523C29.8575 15.9984 26.2687 11.4674 21.3703 10.0372C22.1321 9.22649 22.6003 8.13684 22.6003 6.93921C22.6003 4.44218 20.5689 2.41077 18.0718 2.41077C15.5748 2.41077 13.5434 4.44218 13.5434 6.93921C13.5434 8.13684 14.0115 9.22649 14.7733 10.0372C9.87497 11.4674 6.28613 15.9984 6.28613 21.3523ZM15.4443 6.93921C15.4443 5.49039 16.6229 4.31177 18.0717 4.31177C19.5205 4.31177 20.6991 5.49039 20.6991 6.93921C20.6991 8.38802 19.5205 9.56664 18.0717 9.56664C16.6229 9.56664 15.4443 8.38802 15.4443 6.93921ZM18.0717 11.4678C23.5221 11.4678 27.9564 15.902 27.9564 21.3525C27.9564 26.8029 23.5221 31.2372 18.0717 31.2372C12.6213 31.2372 8.18701 26.8029 8.18701 21.3525C8.18701 15.902 12.6214 11.4678 18.0717 11.4678Z" fill="white"/>
<path d="M17.1808 28.403C17.3192 28.7753 17.6746 29.0224 18.0717 29.0224C18.4689 29.0224 18.8243 28.7754 18.9627 28.403L21.4597 21.6834C21.539 21.4699 21.539 21.2348 21.4597 21.0213L18.9627 14.3017C18.8243 13.9294 18.4689 13.6823 18.0717 13.6823C17.6746 13.6823 17.3192 13.9293 17.1808 14.3017L14.6838 21.0213C14.6044 21.2348 14.6044 21.4699 14.6838 21.6834L17.1808 28.403ZM18.0717 17.3614L19.5548 21.3523L18.0717 25.3431L16.5887 21.3523L18.0717 17.3614Z" fill="white"/>
<path d="M18.8624 21.8801C19.3356 21.1613 18.65 20.205 17.8187 20.4369C17.4279 20.5459 17.1424 20.9001 17.1223 21.3062C17.1032 21.6943 17.3319 22.0629 17.6867 22.2204C18.1077 22.4073 18.6042 22.2586 18.8624 21.8801Z" fill="white"/>
<path d="M43.0501 31.2564C41.5117 32.5695 40.6612 34.433 40.5905 36.6452C40.5852 36.8138 40.5824 36.9829 40.5824 37.1527C40.5824 42.4005 43.1986 47.2678 47.5805 50.1726C47.7397 50.2782 47.9227 50.3309 48.1057 50.3309C48.2887 50.3309 48.4717 50.2781 48.6309 50.1726C49.6812 49.4764 50.6474 48.6527 51.5025 47.7247C51.8582 47.3386 51.8335 46.7371 51.4475 46.3815C51.0613 46.0258 50.46 46.0505 50.1044 46.4367C49.4976 47.0953 48.8272 47.6941 48.1055 48.2223C44.5735 45.6394 42.4834 41.5477 42.4834 37.1527C42.4834 37.0033 42.4858 36.8543 42.4905 36.7061C42.5755 34.0472 44.3447 31.3643 48.1057 31.3643C51.8666 31.3643 53.6358 34.0472 53.7208 36.7061C53.7257 36.8543 53.7281 37.0033 53.7281 37.1525C53.7281 39.4561 53.1457 41.7338 52.044 43.7396C51.7913 44.1997 51.9595 44.7776 52.4195 45.0303C52.8795 45.283 53.4575 45.1148 53.7102 44.6548C54.9656 42.3695 55.6291 39.7753 55.6291 37.1527C55.6291 36.9829 55.6263 36.8138 55.621 36.6454C55.5502 34.433 54.6997 32.5695 53.1613 31.2564C51.8068 30.1001 50.0114 29.4634 48.1057 29.4634C46.2 29.4634 44.4047 30.1002 43.0501 31.2564Z" fill="white"/>
<path d="M48.1056 32.6949C45.59 32.6949 43.5433 34.7416 43.5433 37.2572C43.5433 39.7729 45.59 41.8195 48.1056 41.8195C50.6213 41.8195 52.6679 39.7729 52.6679 37.2572C52.6679 34.7416 50.6213 32.6949 48.1056 32.6949ZM48.1056 39.9184C46.6382 39.9184 45.4443 38.7245 45.4443 37.2571C45.4443 35.7897 46.6382 34.5958 48.1056 34.5958C49.5731 34.5958 50.7669 35.7897 50.7669 37.2571C50.7669 38.7245 49.5731 39.9184 48.1056 39.9184Z" fill="white"/>
<path d="M31.247 40.0877C30.6539 39.77 30.0377 39.4703 29.4153 39.197C28.8153 38.9336 28.2026 38.7045 27.5948 38.5165C27.0933 38.3614 26.5609 38.6419 26.4058 39.1434C26.2506 39.6449 26.5313 40.1773 27.0328 40.3324C27.5721 40.4993 28.1166 40.703 28.6511 40.9377C29.2283 41.1911 29.7996 41.4689 30.3491 41.7634C30.4919 41.8399 30.6457 41.8763 30.7972 41.8763C31.1363 41.8763 31.4645 41.6943 31.6358 41.3746C31.8837 40.9117 31.7097 40.3356 31.247 40.0877Z" fill="white"/>
<path d="M37.5449 44.7357C37.1637 44.3748 36.5621 44.3911 36.2011 44.7723C35.8402 45.1534 35.8566 45.755 36.2378 46.1161C37.1018 46.9344 37.9103 47.7682 38.692 48.5746L38.8916 48.7804C39.078 48.9725 39.3258 49.0691 39.5739 49.0691C39.8123 49.0691 40.0511 48.9799 40.2357 48.8008C40.6125 48.4353 40.6216 47.8336 40.2561 47.4568L40.057 47.2513C39.2612 46.4306 38.4385 45.5819 37.5449 44.7357Z" fill="white"/>
<path d="M45.8168 52.1662C45.3566 51.9131 44.7787 52.081 44.5259 52.5411C44.2729 53.0011 44.4407 53.579 44.9008 53.832C46.1145 54.4995 47.364 54.9566 48.7204 55.2294C48.7836 55.242 48.8466 55.2481 48.9087 55.2481C49.3522 55.2481 49.7488 54.9362 49.8396 54.4848C49.9431 53.9701 49.6098 53.469 49.0951 53.3655C47.931 53.1315 46.8587 52.7392 45.8168 52.1662Z" fill="white"/>
<path d="M9.30221 43.8973C7.59473 45.4738 6.62332 46.7442 6.58277 46.7975C6.2653 47.2153 6.34653 47.8109 6.76399 48.1286C6.93597 48.2595 7.13824 48.3228 7.33886 48.3228C7.6254 48.3228 7.90865 48.1938 8.09584 47.9484C8.10483 47.9366 9.01617 46.7488 10.5918 45.2939C10.9775 44.9377 11.0015 44.3364 10.6453 43.9507C10.2892 43.5651 9.68786 43.541 9.30221 43.8973Z" fill="white"/>
<path d="M19.6021 38.1797C18.3414 38.4536 17.0663 38.8847 15.8123 39.4612C15.3353 39.6805 15.1264 40.245 15.3457 40.7219C15.5058 41.0703 15.8501 41.2756 16.2099 41.2756C16.3427 41.2756 16.4776 41.2476 16.6063 41.1884C17.7353 40.6693 18.8791 40.282 20.0055 40.0372C20.5185 39.9259 20.8441 39.4196 20.7326 38.9067C20.6212 38.3938 20.1145 38.0678 19.6021 38.1797Z" fill="white"/>
<path d="M52.971 22.2853L55.8609 19.3954L58.7509 22.2853C58.9364 22.4709 59.1797 22.5638 59.4229 22.5638C59.6661 22.5638 59.9095 22.471 60.095 22.2853C60.4662 21.9141 60.4662 21.3123 60.095 20.9412L56.533 17.3792C56.1618 17.008 55.56 17.008 55.1889 17.3792L51.6269 20.9412C51.2557 21.3124 51.2557 21.9143 51.6269 22.2853C51.9981 22.6565 52.6 22.6565 52.971 22.2853Z" fill="white"/>
<path d="M51.6269 26.395C51.9981 26.7662 52.6 26.7662 52.971 26.395L54.9104 24.4556V28.1239C54.9104 28.6488 55.336 29.0744 55.8609 29.0744C56.3859 29.0744 56.8114 28.6488 56.8114 28.1239V24.4556L58.7509 26.395C58.9364 26.5805 59.1797 26.6734 59.4229 26.6734C59.6661 26.6734 59.9095 26.5806 60.095 26.395C60.4662 26.0238 60.4662 25.4219 60.095 25.0508L56.533 21.4889C56.1618 21.1176 55.56 21.1176 55.1889 21.4889L51.6269 25.0508C51.2557 25.422 51.2557 26.0239 51.6269 26.395Z" fill="white"/>
<path d="M32.0364 31.1718L34.9263 28.2819L37.8162 31.1718C38.0017 31.3575 38.245 31.4503 38.4882 31.4503C38.7314 31.4503 38.9748 31.3575 39.1603 31.1718C39.5315 30.8006 39.5315 30.1988 39.1603 29.8277L35.5983 26.2657C35.4201 26.0874 35.1783 25.9873 34.9263 25.9873C34.6742 25.9873 34.4324 26.0874 34.2542 26.2657L30.6922 29.8277C30.321 30.1989 30.321 30.8008 30.6922 31.1718C31.0633 31.543 31.6652 31.543 32.0364 31.1718Z" fill="white"/>
<path d="M30.6921 35.2814C31.0633 35.6526 31.6652 35.6526 32.0362 35.2814L33.9756 33.342V37.0103C33.9756 37.5353 34.4012 37.9608 34.9261 37.9608C35.4511 37.9608 35.8766 37.5353 35.8766 37.0103V33.342L37.816 35.2814C38.0016 35.467 38.2449 35.5599 38.4881 35.5599C38.7313 35.5599 38.9746 35.4671 39.1602 35.2814C39.5314 34.9102 39.5314 34.3084 39.1602 33.9373L35.5982 30.3753C35.227 30.0041 34.6251 30.0041 34.2541 30.3753L30.6921 33.9373C30.3209 34.3084 30.3209 34.9102 30.6921 35.2814Z" fill="white"/>
</g>
<defs>
<clipPath id="clip0_830_396">
<rect width="64" height="64" fill="white" transform="translate(0.5)"/>
</clipPath>
</defs>
</svg>
