<svg width="65" height="64" viewBox="0 0 65 64" fill="none" xmlns="http://www.w3.org/2000/svg">
<g clip-path="url(#clip0_830_485)">
<path d="M42.7358 55.3968H38.0669L29.7026 31.8065V13.2117L45.6496 40.8328C45.8302 41.1456 46.1579 41.3204 46.4948 41.3204C46.6602 41.3204 46.8279 41.2783 46.9814 41.1897C47.4477 40.9205 47.6074 40.3242 47.3382 39.8579L29.5719 9.08561C29.3978 8.78403 29.076 8.59814 28.7276 8.59814C28.3793 8.59814 28.0575 8.78403 27.8834 9.08561L20.3253 22.1765C20.0561 22.6428 20.2158 23.2391 20.6821 23.5083C21.1484 23.7775 21.7448 23.6176 22.0139 23.1514L27.7526 13.2115V31.8065L19.3883 55.3967H3.39717L19.958 26.7123C20.2273 26.246 20.0675 25.6497 19.6012 25.3805C19.1347 25.1112 18.5385 25.2711 18.2695 25.7374L0.864162 55.8843C0.689973 56.1858 0.689973 56.5576 0.864162 56.8592C1.03835 57.1608 1.36008 57.3467 1.70845 57.3467H20.0771H37.3782H42.7358C43.2743 57.3467 43.7107 56.9102 43.7107 56.3717C43.7107 55.8333 43.2742 55.3968 42.7358 55.3968ZM21.4572 55.3968L28.7276 34.8916L35.9981 55.3968H21.4572Z" fill="white"/>
<path d="M64.1901 49.5282C64.1382 48.9922 63.6617 48.6002 63.1257 48.6519C62.5898 48.7039 62.1973 49.1804 62.2494 49.7164C62.4528 51.8137 62.1991 53.5071 61.4954 54.7495C60.7696 56.0308 59.3644 56.8268 57.8283 56.8268H49.7677C48.9161 56.8268 47.351 56.4966 46.4352 54.286C45.2957 51.535 45.7714 46.9244 48.8971 43.7985C51.7247 40.9708 52.5359 37.9949 52.6271 35.6931C54.3735 38.539 56.348 43.0508 55.2522 47.7629C55.1558 48.177 55.339 48.6059 55.7048 48.8226C56.0704 49.0393 56.5348 48.9938 56.8517 48.7103C56.9801 48.5953 59.3633 46.4221 60.4028 42.7021C60.7967 43.6991 61.2125 44.8734 61.5545 46.1177C61.6972 46.6368 62.2335 46.9425 62.753 46.7993C63.2722 46.6565 63.5774 46.1199 63.4346 45.6007C62.4171 41.9003 60.8353 38.8815 60.7685 38.7547C60.5593 38.3584 60.1067 38.1559 59.6717 38.2633C59.2366 38.371 58.9312 38.7615 58.9312 39.2096C58.9312 41.4148 58.2617 43.2513 57.5187 44.6103C57.3627 37.4015 52.1074 31.6147 51.8485 31.3342C51.5308 30.9897 51.0131 30.9223 50.6159 31.1708C50.2184 31.4193 50.055 31.9175 50.2255 32.3541C50.3099 32.5702 52.2388 37.6991 47.5181 42.4199C43.7539 46.1841 43.2177 51.614 44.6336 55.0321C45.6193 57.4119 47.4906 58.7766 49.7674 58.7766H57.8281C60.0653 58.7766 62.1205 57.6017 63.1919 55.7104C64.0971 54.1123 64.4329 52.0323 64.1901 49.5282Z" fill="white"/>
<path d="M50.2883 59.7943L46.5837 61.7439C46.1073 61.9946 45.9242 62.5842 46.175 63.0607C46.3496 63.3923 46.6881 63.5818 47.0387 63.5818C47.1917 63.5818 47.347 63.5457 47.4918 63.4695L51.1964 61.5199C51.6728 61.2692 51.8559 60.6796 51.6051 60.2031C51.3544 59.7267 50.765 59.5434 50.2883 59.7943Z" fill="white"/>
<path d="M60.945 61.7439L57.2405 59.7943C56.764 59.5434 56.1743 59.7267 55.9237 60.2031C55.6728 60.6796 55.856 61.2692 56.3324 61.5199L60.0369 63.4695C60.1817 63.5457 60.3372 63.5818 60.49 63.5818C60.8405 63.5818 61.1792 63.3923 61.3537 63.0607C61.6044 62.5842 61.4214 61.9946 60.945 61.7439Z" fill="white"/>
<path d="M53.7644 59.6821C53.2258 59.6821 52.7894 60.1186 52.7894 60.6571V63.025C52.7894 63.5634 53.2258 63.9999 53.7644 63.9999C54.3029 63.9999 54.7393 63.5634 54.7393 63.025V60.6571C54.7393 60.1186 54.3029 59.6821 53.7644 59.6821Z" fill="white"/>
<path d="M46.6084 18.3881C48.5532 20.1205 51.0146 21.0555 53.5979 21.0554C53.8041 21.0554 54.0114 21.0494 54.2189 21.0374C57.0266 20.8752 59.603 19.6292 61.4737 17.5292C65.3352 13.1942 64.9499 6.52561 60.6149 2.66409C58.0477 0.377158 54.5144 -0.511332 51.162 0.287724C50.7107 0.395357 50.3977 0.806129 50.4138 1.26981C50.4298 1.73349 50.7704 2.12164 51.2282 2.19781C52.2463 2.36719 53.1928 2.82047 53.9654 3.50852C55.0575 4.48124 55.7054 5.82106 55.7897 7.28112C55.874 8.74118 55.3848 10.1466 54.4118 11.2388C53.4391 12.3309 52.0993 12.9788 50.6392 13.0631C49.1795 13.1472 47.7736 12.6582 46.6816 11.6854C45.9094 10.9974 45.35 10.1093 45.0644 9.11725C44.9361 8.67138 44.5112 8.3776 44.0489 8.41529C43.5864 8.45286 43.2144 8.81099 43.1595 9.27168C42.7515 12.6932 44.0409 16.1012 46.6084 18.3881ZM50.7515 15.0099C52.7315 14.8955 54.5486 14.0169 55.8677 12.5359C57.1869 11.0548 57.8505 9.1487 57.7361 7.16868C57.6239 5.22544 56.7754 3.43936 55.3441 2.12658C56.8018 2.4266 58.177 3.10385 59.3178 4.11999C62.8501 7.2663 63.164 12.6998 60.0176 16.2322C58.4933 17.9434 56.3941 18.9585 54.1063 19.0907C51.8177 19.2226 49.6163 18.4562 47.9052 16.9321C46.7646 15.9159 45.9334 14.6277 45.4674 13.2143C46.9364 14.4852 48.8088 15.1218 50.7515 15.0099Z" fill="white"/>
<path d="M33.1168 6.67674H36.0415V9.60142C36.0415 10.1398 36.4778 10.5764 37.0164 10.5764C37.5549 10.5764 37.9913 10.1398 37.9913 9.60142V6.67674H40.9159C41.4544 6.67674 41.8908 6.24023 41.8908 5.70181C41.8908 5.16339 41.4544 4.72688 40.9159 4.72688H37.9913V1.8022C37.9913 1.26378 37.5549 0.827271 37.0164 0.827271C36.4778 0.827271 36.0415 1.26378 36.0415 1.8022V4.72688H33.1168C32.5782 4.72688 32.1418 5.16339 32.1418 5.70181C32.1418 6.24023 32.5782 6.67674 33.1168 6.67674Z" fill="white"/>
<path d="M6.32796 17.7904H9.2525V20.7151C9.2525 21.2535 9.68888 21.69 10.2274 21.69C10.766 21.69 11.2024 21.2535 11.2024 20.7151V17.7904H14.127C14.6656 17.7904 15.102 17.3539 15.102 16.8155C15.102 16.277 14.6656 15.8405 14.127 15.8405H11.2024V12.916C11.2024 12.3776 10.766 11.941 10.2274 11.941C9.68888 11.941 9.2525 12.3776 9.2525 12.916V15.8406H6.32796C5.78941 15.8406 5.35303 16.2772 5.35303 16.8156C5.35303 17.354 5.78941 17.7904 6.32796 17.7904Z" fill="white"/>
</g>
<defs>
<clipPath id="clip0_830_485">
<rect width="64" height="64" fill="white" transform="translate(0.5)"/>
</clipPath>
</defs>
</svg>
