<svg width="65" height="64" viewBox="0 0 65 64" fill="none" xmlns="http://www.w3.org/2000/svg">
<g clip-path="url(#clip0_830_468)">
<path d="M49.0382 31.795V47.5562C49.0382 48.0811 49.4638 48.5067 49.9887 48.5067C50.5136 48.5067 50.9392 48.0811 50.9392 47.5562V31.795C50.9392 31.2701 50.5136 30.8445 49.9887 30.8445C49.4638 30.8445 49.0382 31.2701 49.0382 31.795Z" fill="white"/>
<path d="M53.2348 24.318V19.6202C53.2348 19.0952 52.8092 18.6697 52.2843 18.6697C51.7593 18.6697 51.3338 19.0952 51.3338 19.6202V24.318C51.3338 26.5192 49.5436 28.3101 47.343 28.3101H36.6847V21.5008C36.6847 20.9758 36.2592 20.5503 35.7343 20.5503C35.2093 20.5503 34.7838 20.9758 34.7838 21.5008V34.4909H30.2163V21.5008C30.2163 20.9758 29.7907 20.5503 29.2658 20.5503C28.7409 20.5503 28.3153 20.9758 28.3153 21.5008V28.3101H17.6571C15.4559 28.3101 13.665 26.5192 13.665 24.318V19.6202C13.665 19.0952 13.2395 18.6697 12.7145 18.6697C12.1896 18.6697 11.764 19.0952 11.764 19.6202V24.318C11.764 27.5675 14.4077 30.2111 17.6571 30.2111H28.3153V34.4909H26.4165C25.8916 34.4909 25.466 34.9164 25.466 35.4414V39.4968C25.466 40.0217 25.8916 40.4473 26.4165 40.4473H28.3153V45.8132C28.3153 46.0491 28.403 46.2766 28.5614 46.4514L31.7957 50.0202C31.9759 50.219 32.2316 50.3324 32.5 50.3324C32.7685 50.3324 33.0242 50.219 33.2044 50.0203L36.4386 46.4515C36.5971 46.2766 36.6847 46.0491 36.6847 45.8132V40.4473H38.5828C39.1078 40.4473 39.5333 40.0217 39.5333 39.4968V35.4414C39.5333 34.9164 39.1078 34.4909 38.5828 34.4909H36.6847V30.2111H47.343C50.5918 30.2111 53.2348 27.5675 53.2348 24.318ZM34.7838 45.4465L32.5 47.9665L30.2163 45.4465V40.4473H34.7838V45.4465ZM37.6323 38.5463H27.367V36.3918H37.6323V38.5463Z" fill="white"/>
<path d="M13.2365 18.0358C13.7614 18.0358 14.187 17.6103 14.187 17.0853C14.187 16.5604 13.7614 16.1348 13.2365 16.1348H6.73525V5.69713H13.2365C13.7614 5.69713 14.187 5.27156 14.187 4.74664C14.187 4.22171 13.7614 3.79614 13.2365 3.79614H6.56543C5.61088 3.79614 4.83426 4.57276 4.83426 5.52731V5.79218H1.4505C0.925568 5.79218 0.5 6.21775 0.5 6.74268V15.0893C0.5 15.6142 0.925568 16.0398 1.4505 16.0398H4.83426V16.3047C4.83426 17.2592 5.61088 18.0358 6.56543 18.0358H13.2365ZM2.40099 14.1388V7.69317H4.83426V14.1388H2.40099Z" fill="white"/>
<path d="M23.6288 18.0359H41.3712C41.8961 18.0359 42.3217 17.6103 42.3217 17.0854C42.3217 16.5605 41.8961 16.1349 41.3712 16.1349H23.6288C23.1039 16.1349 22.6783 16.5605 22.6783 17.0854C22.6783 17.6103 23.1039 18.0359 23.6288 18.0359Z" fill="white"/>
<path d="M23.6288 5.69713H41.3712C41.8961 5.69713 42.3217 5.27156 42.3217 4.74664C42.3217 4.22171 41.8961 3.79614 41.3712 3.79614H23.6288C23.1039 3.79614 22.6783 4.22171 22.6783 4.74664C22.6783 5.27156 23.1039 5.69713 23.6288 5.69713Z" fill="white"/>
<path d="M63.5495 5.79218H60.1657V5.52731C60.1657 4.57276 59.3886 3.79614 58.4333 3.79614H51.7635C51.2386 3.79614 50.813 4.22171 50.813 4.74664C50.813 5.27156 51.2386 5.69713 51.7635 5.69713H58.2647V16.1348H51.7635C51.2386 16.1348 50.813 16.5604 50.813 17.0853C50.813 17.6103 51.2386 18.0358 51.7635 18.0358H58.4333C59.3886 18.0358 60.1657 17.2592 60.1657 16.3047V16.0398H63.5495C64.0744 16.0398 64.5 15.6142 64.5 15.0893V6.74268C64.5 6.21775 64.0744 5.79218 63.5495 5.79218ZM62.599 14.1388H60.1657V7.69317H62.599V14.1388Z" fill="white"/>
<path d="M15.7711 19.4097H21.0938C21.6188 19.4097 22.0443 18.9842 22.0443 18.4592V3.37298C22.0443 2.84805 21.6188 2.42249 21.0938 2.42249H15.7711C15.2461 2.42249 14.8206 2.84805 14.8206 3.37298V11.249C14.8206 11.774 15.2461 12.1995 15.7711 12.1995C16.296 12.1995 16.7215 11.774 16.7215 11.249V4.32348H20.1433V17.5086H16.7215V14.4175C16.7215 13.8926 16.296 13.467 15.7711 13.467C15.2461 13.467 14.8206 13.8926 14.8206 14.4175V18.4591C14.8206 18.9842 15.246 19.4097 15.7711 19.4097Z" fill="white"/>
<path d="M43.9056 19.4097H49.2283C49.7533 19.4097 50.1788 18.9842 50.1788 18.4592V3.37298C50.1788 2.84805 49.7533 2.42249 49.2283 2.42249H43.9056C43.3806 2.42249 42.9551 2.84805 42.9551 3.37298V18.4591C42.9551 18.9842 43.3805 19.4097 43.9056 19.4097ZM44.8561 4.32348H48.2779V17.5086H44.8561V4.32348Z" fill="white"/>
<path d="M54.4297 35.7583H52.5237C51.9987 35.7583 51.5732 36.1839 51.5732 36.7088C51.5732 37.2337 51.9987 37.6593 52.5237 37.6593H54.4297C55.7897 37.6593 56.8961 38.7657 56.8961 40.1256V41.3345H52.5237C51.9987 41.3345 51.5732 41.7601 51.5732 42.285C51.5732 42.8099 51.9987 43.2355 52.5237 43.2355H54.6149V56.4284C54.6149 58.2195 53.1572 59.6765 51.3655 59.6765H49.7427C50.4897 58.7727 50.9393 57.6142 50.9393 56.3526V50.7248C50.9393 50.1999 50.5137 49.7743 49.9888 49.7743C49.4638 49.7743 49.0383 50.1999 49.0383 50.7248V56.3526C49.0383 58.1839 47.5498 59.6739 45.7191 59.6765H19.2803C17.4497 59.6739 15.9612 58.1839 15.9612 56.3526V31.795C15.9612 31.2701 15.5356 30.8445 15.0107 30.8445C14.4858 30.8445 14.0602 31.2701 14.0602 31.795V56.3525C14.0602 57.6141 14.5096 58.7726 15.2568 59.6764H13.6342C11.8425 59.6764 10.3848 58.2192 10.3848 56.4283V43.2354H12.476C13.001 43.2354 13.4265 42.8098 13.4265 42.2849C13.4265 41.76 13.001 41.3344 12.476 41.3344H8.10363V40.1255C8.10363 38.7655 9.21 37.6592 10.57 37.6592H12.476C13.001 37.6592 13.4265 37.2336 13.4265 36.7087C13.4265 36.1837 13.001 35.7582 12.476 35.7582H10.57C8.1618 35.7582 6.20264 37.7173 6.20264 40.1255V42.2849C6.20264 42.8098 6.6282 43.2354 7.15313 43.2354H8.48382V56.4283C8.48382 59.2676 10.7943 61.5774 13.6342 61.5774H51.3655C54.2054 61.5774 56.5159 59.2675 56.5159 56.4283V43.2354H57.8466C58.3715 43.2354 58.7971 42.8098 58.7971 42.2849V40.1255C58.7971 37.7174 56.8379 35.7583 54.4297 35.7583Z" fill="white"/>
<path d="M31.5676 43.307C31.6539 43.721 32.0068 44.0376 32.4302 44.0683C32.828 44.0972 33.206 43.8692 33.3679 43.5056C33.7095 42.7384 32.9143 41.9225 32.1367 42.2437C31.7189 42.4163 31.4866 42.8653 31.5676 43.307Z" fill="white"/>
<path d="M31.8275 32.489C32.132 32.7846 32.5964 32.8529 32.9679 32.643C33.2928 32.4596 33.4851 32.0903 33.4455 31.7187C33.4052 31.3418 33.1389 31.018 32.7757 30.9075C32.3732 30.785 31.9209 30.9514 31.6972 31.3086C31.4641 31.6812 31.5174 32.1768 31.8275 32.489Z" fill="white"/>
<path d="M31.6222 27.3133C31.9431 28.0905 33.0833 28.0734 33.3859 27.2917C33.5353 26.9058 33.4106 26.4552 33.0843 26.2013C32.782 25.9659 32.3605 25.9375 32.028 26.126C31.6199 26.3574 31.4392 26.8797 31.6222 27.3133Z" fill="white"/>
</g>
<defs>
<clipPath id="clip0_830_468">
<rect width="64" height="64" fill="white" transform="translate(0.5)"/>
</clipPath>
</defs>
</svg>
