<svg width="72" height="72" viewBox="0 0 72 72" fill="none" xmlns="http://www.w3.org/2000/svg">
<path fill-rule="evenodd" clip-rule="evenodd" d="M21.8518 5.3417L30.5805 20.4603C31.9074 19.8496 33.3559 19.4585 34.8785 19.3333V2.26126C30.2369 2.41269 25.8343 3.50066 21.8518 5.3417ZM37.1215 2.26126V19.3431C38.651 19.4823 40.1041 19.8899 41.4323 20.5187L50.1849 5.35868C46.1927 3.50735 41.7774 2.41315 37.1215 2.26126ZM52.1902 6.37137L43.3679 21.6521C44.5761 22.5095 45.6295 23.5706 46.4781 24.7856L62.7417 15.3958C59.895 11.7068 56.3022 8.62328 52.1902 6.37137ZM64.0588 17.2254L47.597 26.7296C48.2025 28.0341 48.5955 29.4572 48.7317 30.9533H69.3824C68.6296 25.93 66.7699 21.2689 64.0588 17.2254ZM69.6423 33.1963H48.7414C48.5829 35.1239 47.9982 36.9329 47.0813 38.5265C46.5862 39.387 45.9944 40.1844 45.3208 40.904L48.6194 45.4594L51.6697 41.9926C53.322 40.1145 56.2481 40.1145 57.9004 41.9926L66.0955 51.3069C68.4366 46.7133 69.757 41.5123 69.757 36C69.757 35.0556 69.7183 34.1206 69.6423 33.1963ZM64.9398 53.389L56.2164 43.4742C55.4572 42.6113 54.1129 42.6113 53.3537 43.4742L30.6061 69.3284C32.3625 69.6105 34.1642 69.757 36 69.757C48.2813 69.757 59.0323 63.1991 64.9398 53.389ZM28.0663 68.8195L34.5488 61.4517L18.5342 43.2499C17.775 42.387 16.4306 42.387 15.6714 43.2499L6.93504 53.1794C11.516 60.9127 19.0932 66.6583 28.0663 68.8195ZM5.79166 51.0834L13.9874 41.7683C15.6398 39.8902 18.5658 39.8902 20.2182 41.7683L23.4191 45.4063L26.6304 40.9713C25.9444 40.2488 25.3415 39.4464 24.8371 38.5793C23.9026 36.9729 23.3067 35.1453 23.1464 33.1963H2.3577C2.28174 34.1206 2.24299 35.0556 2.24299 36C2.24299 41.4231 3.521 46.5449 5.79166 51.0834ZM2.61755 30.9533H23.1561C23.2941 29.4378 23.6955 27.9973 24.3145 26.679L7.94098 17.2257C5.22995 21.2692 3.37035 25.9301 2.61755 30.9533ZM9.25803 15.3962L25.4419 24.7399C26.3113 23.5065 27.3926 22.4333 28.6329 21.5729L19.8451 6.35205C15.7182 8.6057 12.1129 11.6964 9.25803 15.3962ZM27.9736 39.1164L32.6391 32.6733C34.2957 30.3854 37.7043 30.3854 39.3609 32.6733L43.9754 39.046C44.4121 38.5393 44.8016 37.991 45.1371 37.4079C46.0306 35.855 46.542 34.0543 46.542 32.1308C46.542 32.1138 46.542 32.0969 46.5419 32.0801C46.533 30.1755 46.0227 28.3926 45.1368 26.8532C44.2159 25.2529 42.8886 23.9152 41.2965 22.9815C39.7401 22.0688 37.9302 21.5419 35.9948 21.5328C35.9778 21.5328 35.9608 21.5327 35.9439 21.5327C34.0336 21.5327 32.2444 22.0372 30.6988 22.9193C29.0736 23.847 27.717 25.1928 26.7763 26.8096C25.8749 28.3589 25.3549 30.1575 25.3459 32.08C25.3458 32.0969 25.3458 32.1138 25.3458 32.1308C25.3458 34.0723 25.8668 35.8887 26.7759 37.4514C27.1214 38.0453 27.523 38.6027 27.9736 39.1164ZM24.9381 47.1329L36.0426 59.7539L47.1003 47.186L37.5442 33.9888C36.7831 32.9376 35.2169 32.9376 34.4558 33.9888L24.9381 47.1329ZM19.7712 3.85708C24.6489 1.38964 30.1638 0 36 0C41.851 0 47.3791 1.3967 52.2659 3.87588C57.4663 6.51414 61.9389 10.3773 65.3049 15.0854C68.7791 19.9449 71.0753 25.7062 71.7746 31.9499C71.9236 33.2798 72 34.6312 72 36C72 42.4777 70.2881 48.5589 67.2914 53.8124C61.0957 64.6737 49.4041 72 36 72C22.5052 72 10.7462 64.5743 4.58358 53.5914C1.66425 48.3886 0 42.387 0 36C0 34.6312 0.0764455 33.2798 0.225385 31.9499C0.924646 25.7063 3.22082 19.9452 6.69486 15.0858C10.0689 10.3663 14.5548 6.49584 19.7712 3.85708Z" fill="white"/>
</svg>
