<svg width="128" height="32" viewBox="0 0 128 32" fill="none" xmlns="http://www.w3.org/2000/svg">
<g clip-path="url(#clip0_550_886)">
<path d="M27.029 31.9999H24.6685C24.1673 31.9999 23.7608 31.5936 23.7608 31.0923C23.7608 30.5909 24.1673 30.1846 24.6685 30.1846H27.029C28.7689 30.1846 30.1846 28.7689 30.1846 27.0289V4.97099C30.1846 3.23106 28.769 1.81537 27.029 1.81537H13.3979C12.8967 1.81537 12.4902 1.409 12.4902 0.907686C12.4902 0.406374 12.8967 0 13.3979 0H27.029C29.77 0 32 2.22993 32 4.97099V27.0289C31.9999 29.77 29.77 31.9999 27.029 31.9999Z" fill="white"/>
<path d="M18.1058 31.9999H4.97099C2.22993 31.9999 0 29.77 0 27.0289V4.97099C0 2.22993 2.22993 0 4.97099 0H7.01374C7.51499 0 7.92142 0.406374 7.92142 0.907686C7.92142 1.409 7.51499 1.81537 7.01374 1.81537H4.97099C3.23106 1.81537 1.81537 3.23099 1.81537 4.97099V27.0289C1.81537 28.7689 3.23099 30.1846 4.97099 30.1846H18.1058C18.6071 30.1846 19.0135 30.5909 19.0135 31.0923C19.0136 31.5936 18.6071 31.9999 18.1058 31.9999Z" fill="white"/>
<path d="M22.4749 26.5293H9.52519C7.28957 26.5293 5.47083 24.7105 5.47083 22.4749V9.52507C5.47083 7.28951 7.28957 5.4707 9.52519 5.4707H22.4749C24.7105 5.4707 26.5293 7.28945 26.5293 9.52507V22.4749C26.5293 24.7104 24.7105 26.5293 22.4749 26.5293ZM9.52519 7.28614C8.29057 7.28614 7.2862 8.29051 7.2862 9.52513V22.4749C7.2862 23.7095 8.29057 24.7139 9.52519 24.7139H22.4749C23.7095 24.7139 24.7139 23.7095 24.7139 22.4749V9.52507C24.7139 8.29051 23.7095 7.28607 22.4749 7.28607L9.52519 7.28614ZM16.0001 21.5814C12.9224 21.5814 10.4186 19.0776 10.4186 16C10.4186 12.9224 12.9224 10.4186 16.0001 10.4186C19.0777 10.4186 21.5815 12.9224 21.5815 16C21.5815 19.0776 19.0777 21.5814 16.0001 21.5814ZM16.0001 12.2339C13.9234 12.2339 12.2341 13.9233 12.2341 16C12.2341 18.0767 13.9234 19.7661 16.0001 19.7661C18.0767 19.7661 19.7661 18.0767 19.7661 16C19.7661 13.9233 18.0766 12.2339 16.0001 12.2339Z" fill="white"/>
<path d="M21.6504 11.5595C22.3562 11.5595 22.9284 10.9873 22.9284 10.2815C22.9284 9.57563 22.3562 9.00342 21.6504 9.00342C20.9445 9.00342 20.3723 9.57563 20.3723 10.2815C20.3723 10.9873 20.9445 11.5595 21.6504 11.5595Z" fill="white"/>
</g>
<g clip-path="url(#clip1_550_886)">
<path d="M75.029 31.9999H72.6685C72.1673 31.9999 71.7608 31.5935 71.7608 31.0923C71.7608 30.591 72.1673 30.1846 72.6685 30.1846H75.029C76.7689 30.1846 78.1846 28.7689 78.1846 27.0289V4.97099C78.1846 3.23106 76.769 1.81537 75.029 1.81537H61.3979C60.8966 1.81537 60.4902 1.40893 60.4902 0.907686C60.4902 0.406437 60.8966 0 61.3979 0H75.029C77.77 0 80 2.22993 80 4.97099V27.0291C79.9999 29.77 77.77 31.9999 75.029 31.9999Z" fill="white"/>
<path d="M66.1058 31.9999H52.971C50.2299 31.9999 48 29.77 48 27.0289V4.97099C48 2.22993 50.2299 0 52.971 0H55.0137C55.515 0 55.9214 0.406437 55.9214 0.907686C55.9214 1.40893 55.515 1.81537 55.0137 1.81537H52.971C51.2311 1.81537 49.8154 3.23099 49.8154 4.97099V27.0291C49.8154 28.769 51.231 30.1847 52.971 30.1847H66.1058C66.6071 30.1847 67.0135 30.5911 67.0135 31.0924C67.0135 31.5936 66.6071 31.9999 66.1058 31.9999Z" fill="white"/>
<path d="M73.5992 23.1926C72.8559 23.1926 71.9486 23.1719 71.5613 23.1631C71.4509 23.1605 71.3813 23.1589 71.3584 23.1587C70.5136 23.1549 69.7516 22.8499 69.1558 22.2765C68.785 21.9195 68.438 21.5424 68.1025 21.1776L68.0909 21.1649C67.9123 20.971 67.7278 20.7705 67.5446 20.5788C67.3837 20.4104 67.2353 20.2752 67.0911 20.1656C67.0077 20.102 66.9465 20.0805 66.9208 20.0757C66.9081 20.0893 66.8833 20.122 66.8575 20.187C66.7343 20.498 66.5906 21.4482 66.5616 21.7302C66.5011 22.5306 65.9435 23.0573 65.1049 23.1033C64.8383 23.1177 64.5771 23.1251 64.3277 23.1251C62.6713 23.1251 61.2623 22.8016 60.0201 22.1361C58.7871 21.4757 57.6898 20.5188 56.6652 19.2107C55.4319 17.6365 54.3261 15.8216 53.0801 13.3262C53.0272 13.2202 52.0725 11.1887 51.9665 10.9227C51.9507 10.8832 51.9377 10.8426 51.9276 10.8012C51.7946 10.2549 51.962 9.7533 52.3645 9.49212C52.4873 9.41249 52.6275 9.36368 52.7732 9.34999C52.8289 9.34462 52.9985 9.32868 53.7442 9.32868C54.7908 9.32868 56.2958 9.35999 56.385 9.36305C56.3906 9.3633 56.3964 9.36349 56.4021 9.36387C57.1733 9.40562 57.7136 9.79455 58.0078 10.52C58.6878 12.1992 59.494 13.6106 60.4721 14.8352C60.5461 14.9284 60.6412 15.0218 60.7476 15.1067C60.8298 14.7926 60.8983 14.3226 60.9027 14.0832C60.9203 13.1859 60.9003 12.5988 60.8517 11.6967C60.824 11.1876 60.6523 11.0574 60.3018 10.9722C59.9892 10.8962 59.7401 10.6604 59.6472 10.3525C59.5543 10.0445 59.6313 9.7103 59.8497 9.47405C60.3223 8.96299 60.9383 8.86324 61.5338 8.83143C61.8297 8.81543 62.1514 8.80762 62.5171 8.80762C62.8524 8.80762 63.1881 8.81387 63.5126 8.82005C63.7358 8.82424 63.9589 8.82843 64.1819 8.83068C64.6159 8.83455 64.9994 8.87405 65.353 8.95124C65.9966 9.0913 66.4325 9.56699 66.5484 10.2563C66.5948 10.5304 66.6153 10.8 66.6093 11.057C66.6001 11.463 66.5866 11.8748 66.5733 12.273L66.5726 12.2937C66.5534 12.8728 66.5339 13.4639 66.5272 14.042C66.5228 14.4112 66.5513 14.7479 66.6118 15.044C66.9726 14.6607 67.3314 14.2064 67.7643 13.5856C68.3583 12.7335 68.8755 11.7292 69.3921 10.425C69.7118 9.61993 70.0899 9.36118 70.9483 9.35937C72.1452 9.35637 73.3426 9.35555 74.5397 9.35937C74.8473 9.36062 75.1079 9.39668 75.3374 9.46955C75.9225 9.65612 76.2212 10.1962 76.0812 10.8141C75.8747 11.731 75.3812 12.4802 74.935 13.1105C74.4499 13.7952 73.9429 14.4777 73.4526 15.138C73.1919 15.4889 72.9356 15.834 72.6814 16.1805C72.6107 16.277 72.5401 16.3892 72.4597 16.5335C72.2831 16.8531 72.3058 16.8766 72.5232 17.1012C72.7856 17.3715 73.0619 17.6414 73.3293 17.9022C73.7248 18.2883 74.1302 18.684 74.5111 19.1005C75.0081 19.6451 75.446 20.2148 75.8133 20.7948C76.1384 21.3082 76.2041 21.8638 75.9935 22.3193C75.8724 22.5818 75.5492 23.0398 74.7481 23.1537C74.6278 23.1703 74.3791 23.1926 73.5992 23.1926ZM66.9109 18.259C67.3516 18.259 67.7942 18.4188 68.1909 18.7212C68.4111 18.8885 68.6293 19.0862 68.8572 19.3246C69.052 19.5285 69.2423 19.7352 69.4264 19.9353L69.4382 19.9483C69.7557 20.2935 70.0836 20.6499 70.4146 20.9685C70.6749 21.219 70.9867 21.3416 71.3676 21.3433C71.3897 21.3434 71.4714 21.3452 71.5964 21.3481C71.9837 21.3569 72.8764 21.3772 73.5991 21.3772C73.7667 21.3772 73.9047 21.376 74.0176 21.3743C73.7661 21.0177 73.4824 20.666 73.1706 20.3245C72.8253 19.9468 72.4387 19.5694 72.0647 19.2044C71.7852 18.9317 71.4998 18.6532 71.2196 18.3642C70.4286 17.5475 70.3152 16.6604 70.8726 15.6519C70.9921 15.4377 71.1012 15.2654 71.2174 15.1066C71.4741 14.7568 71.7326 14.4089 71.991 14.0609C72.4797 13.403 72.9805 12.7286 73.4537 12.0609C73.6473 11.7874 73.8518 11.4879 74.0174 11.1731C73.0281 11.1709 72.0379 11.1719 71.0477 11.1742C70.4887 12.5732 69.9174 13.6714 69.2534 14.6237C68.7377 15.3631 68.3062 15.9022 67.8541 16.3716C67.3686 16.8751 66.8638 16.9807 66.5255 16.9807C65.7081 16.9807 65.0501 16.3927 64.8491 15.4828C64.7518 15.0393 64.7058 14.5478 64.7119 14.0207C64.7188 13.4231 64.7387 12.8222 64.7579 12.241L64.7588 12.213C64.7719 11.8194 64.7853 11.4125 64.7943 11.0151C64.7967 10.9121 64.7911 10.8034 64.7773 10.6902C64.5938 10.6624 64.3916 10.6479 64.1642 10.6459C63.935 10.6435 63.7066 10.6393 63.4783 10.635C63.1418 10.6287 62.7909 10.6219 62.4561 10.623C62.5743 10.9124 62.6448 11.2389 62.6644 11.5987C62.7154 12.5463 62.7364 13.1648 62.7177 14.1174C62.7094 14.5734 62.5832 15.3908 62.4084 15.8785C62.1586 16.5825 61.5634 17.0216 60.8561 17.0216C60.5057 17.0216 60.1547 16.908 59.8411 16.6929C59.5375 16.4849 59.2646 16.2336 59.0523 15.9665C57.9644 14.6045 57.072 13.0454 56.3253 11.2019C56.3215 11.1927 56.318 11.1846 56.3148 11.1773C56.3141 11.1772 56.3133 11.1771 56.3126 11.1771C56.1743 11.1733 55.0018 11.1498 54.0614 11.145C54.338 11.7402 54.6588 12.4237 54.7046 12.5164C55.8934 14.8971 56.9389 16.6167 58.0941 18.0912C58.9602 19.1972 59.8705 19.9967 60.8771 20.5359C61.8491 21.0567 62.9778 21.3098 64.3274 21.3098C64.4757 21.3098 64.6294 21.3068 64.7868 21.3007C64.8462 20.8542 64.9783 20.0005 65.1697 19.5175C65.4833 18.7291 66.1341 18.259 66.9109 18.259Z" fill="white"/>
</g>
<g clip-path="url(#clip2_550_886)">
<path d="M123.029 32H120.669C120.167 32 119.761 31.5936 119.761 31.0923C119.761 30.591 120.167 30.1846 120.669 30.1846H123.029C124.769 30.1846 126.185 28.769 126.185 27.029V4.971C126.185 3.23106 124.769 1.81537 123.029 1.81537H109.398C108.897 1.81537 108.49 1.409 108.49 0.907687C108.49 0.406375 108.897 0 109.398 0H123.029C125.77 0 128 2.22994 128 4.971V27.029C128 29.7701 125.77 32 123.029 32Z" fill="white"/>
<path d="M114.106 32H100.971C98.2299 32 96 29.7701 96 27.029V4.971C96 2.22994 98.2299 0 100.971 0H103.014C103.515 0 103.921 0.406375 103.921 0.907687C103.921 1.409 103.515 1.81537 103.014 1.81537H100.971C99.2311 1.81537 97.8154 3.231 97.8154 4.971V27.029C97.8154 28.7689 99.231 30.1846 100.971 30.1846H114.106C114.607 30.1846 115.014 30.591 115.014 31.0923C115.014 31.5936 114.607 32 114.106 32Z" fill="white"/>
<path d="M117.959 25.4308H117.959C117.554 25.4308 117.166 25.303 116.836 25.0612C116.829 25.0562 116.823 25.0511 116.816 25.0459L111.917 21.235L109.89 23.1688C109.566 23.493 109.137 23.6713 108.681 23.6713C107.927 23.6713 107.268 23.189 107.042 22.4712C107.038 22.4583 107.034 22.4455 107.031 22.4326L105.848 18.005L102.11 16.9012C101.451 16.7067 101.006 16.1372 100.977 15.4506C100.948 14.7638 101.343 14.1588 101.983 13.9092L120.489 6.69759C120.708 6.61228 120.936 6.56909 121.167 6.56909C121.727 6.56909 122.253 6.82097 122.61 7.26009C122.963 7.69478 123.1 8.26009 122.985 8.81097L119.825 23.9166C119.641 24.794 118.857 25.4308 117.959 25.4308ZM117.916 23.6015C117.93 23.6112 117.944 23.6154 117.959 23.6154C117.967 23.6154 118.034 23.6135 118.048 23.5449L121.208 8.43928C121.211 8.42228 121.21 8.41547 121.201 8.40478C121.192 8.39315 121.177 8.38434 121.167 8.38434C121.162 8.38434 121.156 8.38597 121.148 8.38897L103.277 15.353L106.851 16.4082C107.154 16.4977 107.389 16.7389 107.471 17.0445L108.731 21.7653L111.229 19.3814C111.555 19.0709 112.058 19.0455 112.413 19.3216L117.916 23.6015Z" fill="white"/>
<path d="M109.73 22.513C109.758 22.6053 110.798 21.3053 110.809 21.2091L110.343 18.9256C110.281 18.6248 110.39 18.3146 110.626 18.1184L119.176 11.0138C119.382 10.8318 119.143 10.5107 118.91 10.6553L108.856 16.7875C108.617 16.9329 108.494 17.2109 108.547 17.4851L109.73 22.513Z" fill="white"/>
</g>
<defs>
<clipPath id="clip0_550_886">
<rect width="32" height="32" fill="white"/>
</clipPath>
<clipPath id="clip1_550_886">
<rect width="32" height="32" fill="white" transform="translate(48)"/>
</clipPath>
<clipPath id="clip2_550_886">
<rect width="32" height="32" fill="white" transform="translate(96)"/>
</clipPath>
</defs>
</svg>
